<?xml version="1.0" encoding="UTF-8" standalone="no"?>
<svg
   width="71"
   height="32"
   viewBox="0 0 71 32"
   fill="none"
   version="1.1"
   id="svg6"
   sodipodi:docname="watermark.svg"
   inkscape:version="1.3.2 (091e20e, 2023-11-25)"
   xmlns:inkscape="http://www.inkscape.org/namespaces/inkscape"
   xmlns:sodipodi="http://sodipodi.sourceforge.net/DTD/sodipodi-0.dtd"
   xmlns="http://www.w3.org/2000/svg"
   xmlns:svg="http://www.w3.org/2000/svg">
  <defs
     id="defs6" />
  <sodipodi:namedview
     id="namedview6"
     pagecolor="#ffffff"
     bordercolor="#000000"
     borderopacity="0.25"
     inkscape:showpageshadow="2"
     inkscape:pageopacity="0.0"
     inkscape:pagecheckerboard="0"
     inkscape:deskcolor="#d1d1d1"
     inkscape:zoom="7.375"
     inkscape:cx="35.525424"
     inkscape:cy="15.932203"
     inkscape:window-width="1920"
     inkscape:window-height="1052"
     inkscape:window-x="0"
     inkscape:window-y="0"
     inkscape:window-maximized="1"
     inkscape:current-layer="svg6" />
  <path
     id="path1"
     d="m 4.0108204,19.698245 h 1.9665107 v 4.507174 c -0.5990364,0.07398 -1.2534403,0.12618 -1.9665107,0.161881 z"
     style="fill:#1e68bb;fill-opacity:1;fill-rule:evenodd;stroke:none;stroke-width:0.382298" />
  <path
     id="path2"
     d="m 6.2230053,17.902353 h 1.9665113 v 5.852383 C 7.614076,23.93569 6.9616082,24.071982 6.2230053,24.173225 Z"
     style="fill:#1e68bb;fill-opacity:1;fill-rule:evenodd;stroke:none;stroke-width:0.382298" />
  <path
     id="path3"
     d="m 8.4353342,15.547605 h 1.9665108 v 6.95815 c -0.5157704,0.505578 -1.1614596,0.885066 -1.9665108,1.167549 z"
     style="fill:#1e68bb;fill-opacity:1;fill-rule:evenodd;stroke:none;stroke-width:0.382298" />
  <path
     id="path4"
     d="m 13.596264,11.535941 h 0.55493 v 0.534766 c 0,10.849207 -1.829313,12.612081 -13.0877916,12.612081 H 0.50847445 c 0,-3.056692 0.51709615,-7.86876 2.71253565,-10.364202 1.8009112,-2.047073 5.2589345,-2.873812 10.3752539,-2.782645 z m -0.04277,0.692817 c -8.3478898,0 -11.6703998,2.72396 -11.9350805,11.384464 9.9714025,0 11.9350805,-1.775356 11.9350805,-11.384464"
     style="fill:#6c7376;fill-opacity:1;fill-rule:nonzero;stroke:none;stroke-width:0.382298" />
  <path
     id="path5"
     d="m 16.892668,7.9830514 h 0.159073 v 0.1533251 c 0,3.1093485 -0.524303,3.6145645 -3.750961,3.6145645 H 13.141706 V 11.59766 c 0,-2.8583353 0.44398,-3.6146086 3.750962,-3.6146086"
     style="fill:#6c7376;fill-opacity:1;fill-rule:nonzero;stroke:none;stroke-width:0.382298" />
  <path
     id="path6"
     d="m 28.296366,21.687203 c 0.0431,0 0.08003,0 0.09234,-0.0068 0.01847,-0.0068 0.03078,-0.02773 0.03694,-0.04159 0.01847,-0.04159 0.04925,-0.05546 0.104661,-0.04159 0.05542,0.0208 0.11082,0.04159 0.16623,0.09013 0.06156,0.02773 0.08619,0.07625 0.08619,0.117857 0,0.03466 -0.02463,0.06933 -0.09234,0.103989 -0.04924,0.02773 -0.08619,0.04853 -0.123132,0.05546 -0.03694,0.0068 -0.05542,0.0068 -0.06772,0 -0.02463,-0.0068 -0.04924,-0.0208 -0.08003,-0.02773 -0.03694,-0.01387 -0.07387,-0.0208 -0.116976,-0.0208 -0.05542,0 -0.135444,0 -0.227793,-0.0068 -0.0985,0 -0.190856,0 -0.277046,0.0068 -0.02463,0 -0.03694,0.0068 -0.0431,0.02773 -0.0061,0.01387 -0.01847,0.04159 -0.03078,0.06933 -0.0061,0.02773 -0.03079,0.08319 -0.05542,0.173321 -0.02463,0.0832 -0.05541,0.166388 -0.08619,0.256514 -0.02463,0.09705 -0.04925,0.17332 -0.07387,0.256514 -0.02463,0.06239 -0.03694,0.110925 -0.0431,0.124791 -0.01232,0.04159 0,0.06239 0.03695,0.06239 0.01232,0 0.0431,0 0.0985,0 0.05542,-0.0068 0.116973,-0.0068 0.19701,-0.02079 0.06772,0 0.153915,-0.0068 0.240108,-0.01387 0.08619,0 0.172384,0 0.252419,-0.0068 0.116976,-0.0068 0.203168,-0.0068 0.252421,0 0.04925,0 0.08619,0 0.104661,0 0.06772,0.0068 0.08004,0.03466 0.05542,0.06933 -0.01232,0.0068 -0.03079,0.02079 -0.04925,0.03466 -0.01847,0.02079 -0.04925,0.03466 -0.08619,0.04853 -0.03694,0.01387 -0.09234,0.03466 -0.178541,0.04853 -0.08004,0.02079 -0.166228,0.03467 -0.25242,0.04852 -0.135445,0.01387 -0.252421,0.03466 -0.350926,0.04159 -0.0985,0.01387 -0.209324,0.03466 -0.313986,0.04853 -0.04925,0.0068 -0.08619,0.02079 -0.0985,0.04159 -0.01847,0.01387 -0.0431,0.04853 -0.05541,0.09012 -0.03694,0.103988 -0.07387,0.194118 -0.104662,0.263448 -0.02463,0.07626 -0.05541,0.159455 -0.08619,0.249579 -0.02463,0.05546 -0.02463,0.09707 0.02463,0.117859 0.01847,0.0068 0.0431,0.01387 0.08003,0.01387 0.03078,0.0068 0.06156,0.0068 0.09851,0.0068 0.03078,0 0.06772,0 0.104661,-0.0068 0.03078,0 0.06156,-0.01387 0.08619,-0.02079 0.03078,-0.01387 0.05541,-0.0068 0.06157,0.0068 0.0061,0.02079 -0.0062,0.04159 -0.03078,0.07626 -0.05541,0.06238 -0.129288,0.117858 -0.227792,0.159455 -0.0985,0.04159 -0.197011,0.06239 -0.301674,0.06239 -0.05542,0 -0.116975,0 -0.172384,-0.01387 -0.05542,-0.02079 -0.0985,-0.04159 -0.129289,-0.06932 -0.02463,-0.01387 -0.03694,-0.04159 -0.03694,-0.06239 -0.0062,-0.02079 0,-0.04159 0.01232,-0.05546 0.01847,-0.02773 0.06157,-0.06239 0.123131,-0.103989 0.02463,-0.01387 0.03694,-0.04159 0.04925,-0.04853 0.01232,-0.02773 0.02463,-0.04159 0.03695,-0.06932 0,-0.0208 0.0061,-0.05546 0.02463,-0.09705 0.01232,-0.04853 0.02463,-0.09706 0.03695,-0.14559 0.01231,-0.05546 0.02463,-0.103989 0.03078,-0.159455 0.01847,-0.04852 0.02463,-0.0832 0.03078,-0.103989 0.0061,-0.02773 0.0061,-0.05546 0,-0.08319 -0.01232,-0.03466 -0.02463,-0.05546 -0.03694,-0.07626 -0.0431,-0.06239 -0.03078,-0.110923 0.0431,-0.159454 0.0431,-0.02773 0.07387,-0.05546 0.09234,-0.0832 0.03078,-0.02079 0.0431,-0.04853 0.06156,-0.07626 0,-0.01387 0.01847,-0.06238 0.0431,-0.131723 0.01847,-0.07626 0.0431,-0.159455 0.06772,-0.249582 0.02463,-0.09705 0.05541,-0.187186 0.08004,-0.27038 0.02463,-0.09012 0.03694,-0.152521 0.04925,-0.19412 0.0061,-0.05546 -0.01232,-0.07625 -0.03694,-0.07625 -0.07387,0 -0.141604,0.02773 -0.203169,0.09013 -0.04924,0.04159 -0.08003,0.04159 -0.0985,0.01387 -0.03078,-0.04159 -0.03694,-0.09013 -0.01232,-0.145588 0.01847,-0.02773 0.03078,-0.06238 0.06156,-0.09705 0.01847,-0.04159 0.04925,-0.06933 0.07387,-0.09705 0.03695,-0.04159 0.08004,-0.05546 0.116975,-0.0624 0.0431,0 0.08004,0.0068 0.116975,0.03466 0.01847,0.01387 0.03078,0.02079 0.03695,0.01387 0.0061,-0.0068 0.01232,-0.01387 0.01232,-0.02079 0,-0.02079 0,-0.02773 0.0062,-0.05546 0,-0.0068 0.0061,-0.02773 0.01232,-0.04852 0.0061,-0.04853 0.03694,-0.07626 0.07387,-0.07626 0.05542,0 0.104662,0.02079 0.147758,0.06239 0.0431,0.04853 0.06772,0.09705 0.06156,0.131722 -0.0061,0.0208 0.01232,0.02773 0.04925,0.02773 z m 1.229778,-0.485297 c 0.0431,0 0.08619,0.01387 0.116977,0.04159 0.03078,0.03466 0.03694,0.06933 0.02463,0.12479 -0.01232,0.06239 -0.02463,0.138656 -0.03694,0.214918 0,0.07625 -0.0061,0.145589 0,0.201051 0.0061,0.04159 -0.0061,0.06239 -0.02463,0.06933 -0.01847,0 -0.0431,-0.0068 -0.08003,-0.02079 -0.06772,-0.04159 -0.116976,-0.110926 -0.12929,-0.19412 -0.0061,-0.02773 -0.01231,-0.06238 -0.01847,-0.103988 -0.0061,-0.04159 -0.0061,-0.07626 -0.0061,-0.117857 0.0061,-0.09013 0.03078,-0.14559 0.04925,-0.173322 0.03078,-0.03466 0.06156,-0.04159 0.0985,-0.04159 z m -0.646441,3.064307 c -0.03078,0 -0.06156,-0.01387 -0.09234,-0.04853 -0.03694,-0.0208 -0.07387,-0.07625 -0.110819,-0.152522 -0.0431,-0.103988 -0.05541,-0.22185 -0.01847,-0.339708 0.0061,-0.02773 0.01847,-0.07626 0.03694,-0.131723 0.01232,-0.06239 0.03695,-0.12479 0.04924,-0.19412 0.01847,-0.06238 0.0431,-0.131723 0.06157,-0.194118 0.01847,-0.06933 0.03694,-0.124791 0.04925,-0.159455 0.01232,-0.03466 0.01232,-0.06238 0.01847,-0.07625 0.0061,-0.02079 0.0061,-0.04159 0.01232,-0.05546 0.0061,-0.05546 0.01232,-0.103988 0.03694,-0.166387 0.02463,-0.04853 0.04924,-0.09705 0.08619,-0.166388 0.03078,-0.05546 0.06156,-0.117858 0.0985,-0.173322 0.0431,-0.06238 0.08004,-0.110924 0.116975,-0.145588 0.03694,-0.04159 0.06772,-0.06238 0.09234,-0.06238 0.03078,0 0.04925,0.01387 0.06157,0.04159 0.01847,0.01387 0.03078,0.04159 0.03694,0.09013 0.0061,0.03466 -0.0061,0.08319 -0.03078,0.138656 -0.0431,0.08319 -0.08619,0.173321 -0.135444,0.277314 -0.0431,0.103988 -0.08619,0.207983 -0.129289,0.311975 -0.03694,0.110926 -0.07387,0.214918 -0.110819,0.31891 -0.03078,0.103988 -0.05541,0.201053 -0.08619,0.298112 -0.02463,0.103989 -0.02463,0.180253 -0.0061,0.214917 0.01231,0.04159 0.0431,0.06238 0.08619,0.06238 0.06157,0 0.14776,-0.03466 0.246265,-0.09705 0.09851,-0.06239 0.20317,-0.152522 0.301676,-0.242648 0.110818,-0.09706 0.21548,-0.207985 0.326298,-0.31891 0.0985,-0.110925 0.197012,-0.221852 0.277047,-0.311977 0.02463,-0.03467 0.0431,-0.04159 0.05542,-0.03467 0.01847,0 0.02463,0.01387 0.02463,0.04159 0,0.0208 -0.0061,0.04159 -0.01232,0.06932 -0.0062,0.02773 -0.01847,0.06239 -0.0431,0.103989 -0.05541,0.09705 -0.129289,0.194119 -0.215482,0.291178 -0.08619,0.103989 -0.178541,0.201052 -0.277046,0.298111 -0.09234,0.09705 -0.190854,0.180253 -0.283203,0.249583 -0.0985,0.08319 -0.178542,0.131722 -0.252421,0.166387 -0.06156,0.04159 -0.116975,0.06239 -0.166228,0.07626 -0.03694,0.01387 -0.07387,0.02079 -0.0985,0.02079 z m 1.603793,-2.156107 c 0.04925,0 0.08004,0.02773 0.110818,0.08319 0.03079,0.06238 0.04925,0.110926 0.04925,0.152522 0,0.02772 -0.01847,0.04852 -0.04925,0.05546 -0.02463,0.0068 -0.04924,0.02079 -0.06772,0.04159 -0.01847,0.03467 -0.03694,0.06238 -0.06156,0.110926 -0.01232,0.04159 -0.03695,0.0832 -0.06157,0.152521 -0.01847,0.05546 -0.03694,0.124792 -0.06156,0.207986 -0.02463,0.06933 -0.0431,0.138656 -0.06156,0.214917 -0.01847,0.06933 -0.03078,0.138656 -0.0431,0.19412 -0.0061,0.02773 -0.0061,0.04159 0.0061,0.05546 0.01232,0 0.03078,-0.0068 0.0431,-0.03466 0.0431,-0.06238 0.09851,-0.138657 0.166229,-0.221851 0.06157,-0.0832 0.135445,-0.166388 0.203167,-0.242648 0.07387,-0.09013 0.141602,-0.159455 0.209324,-0.228783 0.06156,-0.06238 0.116977,-0.110925 0.147759,-0.145589 0.08003,-0.06239 0.129288,-0.103988 0.160071,-0.124791 0.02463,-0.02079 0.04925,-0.03466 0.07387,-0.04853 0.0431,-0.01387 0.07387,-0.04853 0.0985,-0.103988 0.01232,-0.02079 0.03078,-0.04159 0.04924,-0.05546 0.0061,-0.02079 0.03078,-0.02773 0.0431,-0.02773 0.03694,0 0.06772,0.02079 0.104662,0.07626 0.02463,0.02773 0.03694,0.06238 0.03078,0.09705 0,0.03466 -0.01232,0.07626 -0.03078,0.124789 -0.01847,0.03466 -0.0431,0.0832 -0.06772,0.124792 -0.03078,0.04852 -0.05541,0.09705 -0.08003,0.159455 -0.04924,0.110924 -0.09234,0.235716 -0.129289,0.381305 -0.04925,0.131724 -0.08619,0.256514 -0.110818,0.374373 -0.02463,0.110924 -0.03078,0.194118 -0.03078,0.270378 0,0.07625 0.0061,0.131725 0.01847,0.173322 0.01847,0.04852 0.03694,0.08319 0.06772,0.09706 0.02463,0.02079 0.05542,0.02773 0.08619,0.02773 0.06156,0 0.135446,-0.02773 0.221638,-0.09012 0.08004,-0.06932 0.166229,-0.159455 0.252421,-0.256515 0.09234,-0.09705 0.178541,-0.207984 0.27089,-0.318909 0.08003,-0.117858 0.153915,-0.214918 0.221638,-0.311977 0.03694,-0.05546 0.05542,-0.06238 0.06772,-0.0208 0.01847,0.04159 0,0.103989 -0.04925,0.187187 -0.116976,0.201052 -0.221637,0.374371 -0.320143,0.513029 -0.110819,0.138656 -0.203168,0.249581 -0.295517,0.332776 -0.09234,0.09013 -0.178542,0.145588 -0.264734,0.180251 -0.08003,0.04159 -0.147758,0.05546 -0.215481,0.05546 -0.110818,0 -0.197011,-0.06933 -0.258577,-0.214918 -0.06157,-0.138656 -0.06772,-0.34664 -0.01232,-0.623953 0.02463,-0.12479 0.04925,-0.242648 0.07387,-0.34664 0.03078,-0.103988 0.05541,-0.187186 0.08003,-0.249582 0.01231,-0.05546 0.02463,-0.09013 0.02463,-0.103988 0,-0.0208 0,-0.03466 -0.0061,-0.04159 -0.01847,-0.01387 -0.04925,0.0068 -0.110818,0.06933 -0.116976,0.110924 -0.215481,0.228783 -0.30783,0.339708 -0.0985,0.117858 -0.178541,0.228783 -0.25242,0.332774 -0.08004,0.110926 -0.135447,0.207986 -0.190854,0.305045 -0.05541,0.09013 -0.09234,0.173321 -0.12929,0.235717 -0.01231,0.03466 -0.03695,0.06932 -0.06772,0.117856 -0.02463,0.03466 -0.05542,0.05546 -0.08003,0.05546 -0.03078,0 -0.06157,-0.02079 -0.09234,-0.07626 -0.01847,-0.01387 -0.02463,-0.04853 -0.01847,-0.09705 0.0061,-0.05546 0.01232,-0.09706 0.02463,-0.152522 0.07387,-0.381304 0.147759,-0.707147 0.221639,-0.977528 0.08003,-0.263447 0.141601,-0.450634 0.184697,-0.547692 0.0431,-0.103989 0.08619,-0.166388 0.116975,-0.19412 0.03695,-0.02773 0.06772,-0.04159 0.09234,-0.04159 z m 2.615013,0.08319 c 0.02463,0 0.04924,0.01387 0.07387,0.04159 0.01847,0.02773 0.03694,0.04853 0.05542,0.07625 0.0061,0.02773 0.01847,0.02773 0.0431,0.0068 0.03694,-0.02773 0.06773,-0.02773 0.0985,0 0.03694,0.02772 0.05541,0.04853 0.06157,0.07626 0,0.02773 0,0.05546 -0.01847,0.0832 -0.07387,0.187186 -0.135445,0.374372 -0.178541,0.533826 -0.04924,0.166389 -0.06772,0.332777 -0.06772,0.499164 0,0.131723 0.01231,0.228783 0.03078,0.318909 0.01847,0.0832 0.06157,0.12479 0.123133,0.12479 0.05541,0 0.110817,-0.02773 0.184697,-0.09013 0.07387,-0.05546 0.153916,-0.124791 0.227794,-0.214917 0.07387,-0.08319 0.153915,-0.180253 0.227794,-0.284246 0.08004,-0.103988 0.147758,-0.201051 0.203168,-0.298111 0.01847,-0.02773 0.03694,-0.04852 0.05542,-0.04159 0.01231,0 0.02463,0.01387 0.02463,0.03466 0,0.04852 -0.01847,0.117858 -0.04925,0.201052 -0.0431,0.09706 -0.110819,0.207985 -0.197011,0.325841 -0.08003,0.117859 -0.166228,0.22185 -0.258577,0.325843 -0.0985,0.09012 -0.190854,0.17332 -0.283203,0.235716 -0.0985,0.06238 -0.172386,0.09706 -0.240109,0.09706 -0.06157,0 -0.116974,-0.03466 -0.17854,-0.117858 -0.06157,-0.07626 -0.0985,-0.166387 -0.110818,-0.291178 0,-0.06238 -0.0061,-0.124791 -0.0061,-0.194119 -0.0061,-0.06239 -0.0061,-0.117857 -0.0061,-0.145588 0,-0.04159 -0.01231,-0.04159 -0.0431,-0.01387 -0.01231,0.03466 -0.0431,0.06932 -0.08619,0.12479 -0.03695,0.04853 -0.08003,0.103988 -0.129288,0.166389 -0.04925,0.06238 -0.0985,0.117857 -0.147759,0.17332 -0.04924,0.04853 -0.08619,0.09706 -0.123132,0.131723 -0.116976,0.110924 -0.215481,0.166388 -0.295515,0.166388 -0.0061,0 -0.02463,0 -0.04925,-0.01387 -0.02463,-0.0068 -0.0431,-0.0208 -0.06772,-0.04853 -0.02463,-0.01387 -0.04925,-0.04159 -0.06157,-0.07626 -0.01847,-0.04159 -0.03078,-0.08319 -0.03078,-0.138656 0,-0.04852 0.01232,-0.12479 0.03694,-0.214917 0.02463,-0.103989 0.07387,-0.235716 0.153915,-0.402103 0.06772,-0.152522 0.153915,-0.305045 0.264734,-0.478365 0.110818,-0.17332 0.227793,-0.318911 0.350926,-0.436768 0.104661,-0.110926 0.190855,-0.173321 0.264735,-0.201053 0.06156,-0.02773 0.116974,-0.04159 0.1416,-0.04159 z m -0.147758,0.311977 c -0.06772,0 -0.172384,0.09706 -0.313987,0.284245 -0.123132,0.159454 -0.21548,0.325842 -0.295516,0.499163 -0.06773,0.17332 -0.116975,0.311977 -0.141601,0.41597 -0.01232,0.04852 -0.01847,0.09706 -0.0061,0.131724 0.0061,0.04159 0.03078,0.06238 0.06157,0.06238 0.02463,0 0.05542,-0.0208 0.08619,-0.04159 0.03694,-0.03466 0.08004,-0.06933 0.129289,-0.117859 0.0431,-0.04852 0.09234,-0.117857 0.166228,-0.214916 0.06157,-0.09013 0.135446,-0.19412 0.209325,-0.305044 0.01847,-0.02079 0.03078,-0.05546 0.05542,-0.09013 0.01847,-0.04853 0.03695,-0.08319 0.05542,-0.124791 0.01847,-0.03466 0.03078,-0.07626 0.04924,-0.103988 0.01232,-0.02773 0.02463,-0.04853 0.03078,-0.0624 0.0061,-0.02773 0.01847,-0.06238 0.02463,-0.103988 0.0061,-0.03466 0.0061,-0.06933 0,-0.103988 -0.0061,-0.03466 -0.02463,-0.06238 -0.03078,-0.09013 -0.01847,-0.02772 -0.0431,-0.03466 -0.07387,-0.03466 z m 2.071695,-0.311977 c 0.07387,0 0.129287,0.02773 0.166227,0.06933 0.03695,0.05546 0.05541,0.09706 0.05541,0.152521 0,0.06239 -0.01847,0.117859 -0.04924,0.152522 -0.0431,0.04159 -0.07387,0.07626 -0.104661,0.09706 -0.05542,0.03466 -0.09234,0.03466 -0.116976,0.01387 -0.03078,-0.02773 -0.03694,-0.06238 -0.02463,-0.110926 0.0062,-0.0624 -0.01847,-0.09013 -0.07387,-0.09013 -0.02463,0 -0.05542,0.0068 -0.09234,0.02773 -0.03078,0.0208 -0.07387,0.04852 -0.110819,0.09013 -0.03694,0.03466 -0.08003,0.06933 -0.110818,0.117857 -0.03694,0.04852 -0.07387,0.09013 -0.104663,0.138657 -0.09234,0.159455 -0.160071,0.311977 -0.190853,0.443701 -0.03079,0.138656 -0.0431,0.256514 -0.0431,0.339707 0,0.110925 0.02463,0.201053 0.06773,0.256515 0.0431,0.06238 0.104662,0.09013 0.178541,0.09013 0.09234,0 0.197011,-0.02773 0.307829,-0.0832 0.110819,-0.04853 0.221637,-0.117858 0.332457,-0.194119 0.110817,-0.08319 0.21548,-0.166387 0.320143,-0.263446 0.0985,-0.09706 0.184697,-0.187187 0.252419,-0.27038 0.04925,-0.05546 0.08003,-0.06238 0.09234,-0.01387 0.01231,0.04159 -0.0061,0.103988 -0.05542,0.173322 -0.08003,0.12479 -0.178541,0.235715 -0.289359,0.346641 -0.11082,0.103988 -0.227795,0.20105 -0.357084,0.291178 -0.123133,0.08319 -0.25242,0.152521 -0.375552,0.207984 -0.129288,0.04159 -0.246263,0.06933 -0.350926,0.06933 -0.0431,0 -0.09234,0 -0.147758,-0.02773 -0.04925,-0.0068 -0.09234,-0.04159 -0.135445,-0.08319 -0.0431,-0.04159 -0.08004,-0.09706 -0.104663,-0.166388 -0.02463,-0.06933 -0.0431,-0.159454 -0.0431,-0.263447 0,-0.131723 0.03078,-0.291178 0.08619,-0.471431 0.05541,-0.19412 0.160071,-0.381305 0.295515,-0.561559 0.04925,-0.06933 0.104664,-0.131725 0.172386,-0.187186 0.06157,-0.05546 0.116976,-0.103999 0.190855,-0.152522 0.06157,-0.04159 0.123131,-0.07625 0.190854,-0.103988 0.06157,-0.02079 0.116975,-0.03466 0.166227,-0.03466 z m 1.362145,-0.991394 c 0.0431,0 0.08619,0.01387 0.116973,0.04159 0.03078,0.03466 0.03693,0.06933 0.02463,0.124791 -0.01233,0.06238 -0.02463,0.138656 -0.03693,0.214917 0,0.07626 -0.0061,0.145589 0,0.201052 0.0061,0.04159 -0.0061,0.0624 -0.02463,0.06933 -0.01848,0 -0.0431,-0.0068 -0.08004,-0.02079 -0.06772,-0.04159 -0.116973,-0.110926 -0.129287,-0.194119 -0.0061,-0.02773 -0.0123,-0.06239 -0.01848,-0.103989 -0.0061,-0.04159 -0.0061,-0.07626 -0.0061,-0.117856 0.0061,-0.09013 0.03078,-0.14559 0.04924,-0.173322 0.03077,-0.03466 0.06157,-0.04159 0.0985,-0.04159 z m -0.646442,3.064307 c -0.03078,0 -0.06157,-0.01387 -0.09234,-0.04853 -0.03695,-0.0208 -0.07387,-0.07626 -0.110819,-0.152523 -0.0431,-0.103989 -0.05541,-0.22185 -0.01847,-0.339708 0.0061,-0.02773 0.01847,-0.07626 0.03695,-0.131723 0.01232,-0.06238 0.03694,-0.124791 0.04925,-0.194119 0.01847,-0.06239 0.0431,-0.131724 0.06156,-0.194118 0.01847,-0.06933 0.03695,-0.124792 0.04925,-0.159456 0.01232,-0.03466 0.01232,-0.06239 0.01847,-0.07626 0.0061,-0.02079 0.0061,-0.04159 0.01232,-0.05546 0.0061,-0.05546 0.01232,-0.103988 0.03694,-0.166387 0.02463,-0.04853 0.04925,-0.09705 0.08619,-0.166388 0.03079,-0.05546 0.06156,-0.117858 0.0985,-0.173321 0.0431,-0.06238 0.08003,-0.110924 0.116973,-0.145589 0.03693,-0.04159 0.06772,-0.06238 0.09235,-0.06238 0.03077,0 0.04925,0.01387 0.06157,0.04159 0.01848,0.01387 0.03078,0.04159 0.03693,0.09012 0.0061,0.03466 -0.0061,0.0832 -0.03078,0.138657 -0.0431,0.08319 -0.08619,0.173322 -0.135445,0.277313 -0.0431,0.103989 -0.08619,0.207984 -0.129287,0.311976 -0.03695,0.110926 -0.07387,0.214918 -0.110817,0.31891 -0.03078,0.103989 -0.05542,0.201052 -0.08619,0.298112 -0.02463,0.103988 -0.02463,0.180252 -0.0061,0.214917 0.01231,0.04159 0.0431,0.06239 0.08619,0.06239 0.06156,0 0.147758,-0.03466 0.246263,-0.09706 0.0985,-0.06238 0.20317,-0.152521 0.301676,-0.242649 0.110818,-0.09705 0.215478,-0.207984 0.326297,-0.318909 0.0985,-0.110926 0.19701,-0.221851 0.277048,-0.311977 0.02463,-0.03466 0.0431,-0.04159 0.05542,-0.03466 0.01852,0 0.02461,0.01387 0.02461,0.04159 0,0.02079 -0.0058,0.04159 -0.01235,0.06932 -0.0058,0.02773 -0.01844,0.06239 -0.04314,0.103988 -0.05542,0.09705 -0.129291,0.19412 -0.215479,0.291179 -0.0862,0.103989 -0.178543,0.201051 -0.277049,0.298111 -0.09234,0.09705 -0.190851,0.180254 -0.283204,0.249582 -0.0985,0.08319 -0.178538,0.131723 -0.252416,0.166388 -0.06157,0.04159 -0.116979,0.0624 -0.166232,0.07626 -0.03694,0.01387 -0.07387,0.02079 -0.0985,0.02079 z m 2.077849,-2.072913 c 0.02461,0 0.04922,0.01387 0.07391,0.04159 0.01852,0.02773 0.03695,0.04853 0.05539,0.07625 0.0058,0.02773 0.01844,0.02773 0.04314,0.0068 0.03696,-0.02773 0.06773,-0.02773 0.0985,0 0.03695,0.02772 0.05539,0.04853 0.06156,0.07626 0,0.02773 0,0.05546 -0.01844,0.0832 -0.07391,0.187186 -0.13544,0.374372 -0.178544,0.533826 -0.04921,0.166389 -0.06774,0.332777 -0.06774,0.499164 0,0.131723 0.01226,0.228783 0.03078,0.318909 0.01852,0.0832 0.06157,0.12479 0.123137,0.12479 0.0554,0 0.110815,-0.02773 0.184692,-0.09013 0.07392,-0.05546 0.153917,-0.124791 0.227794,-0.214917 0.07391,-0.08319 0.153919,-0.180253 0.227795,-0.284246 0.08008,-0.103988 0.147763,-0.201051 0.203171,-0.298111 0.01844,-0.02773 0.03695,-0.04852 0.05539,-0.04159 0.01226,0 0.02461,0.01387 0.02461,0.03466 0,0.04852 -0.01844,0.117858 -0.04922,0.201052 -0.04314,0.09706 -0.110815,0.207985 -0.197013,0.325841 -0.08,0.117859 -0.166223,0.22185 -0.258578,0.325843 -0.0985,0.09012 -0.190847,0.17332 -0.283202,0.235716 -0.0985,0.06238 -0.172387,0.09706 -0.240107,0.09706 -0.06157,0 -0.116971,-0.03466 -0.178543,-0.117858 -0.06157,-0.07626 -0.0985,-0.166387 -0.110816,-0.291178 0,-0.06238 -0.0058,-0.124791 -0.0058,-0.194119 -0.0058,-0.06239 -0.0058,-0.117857 -0.0058,-0.145588 0,-0.04159 -0.01226,-0.04159 -0.04314,-0.01387 -0.01235,0.03466 -0.04314,0.06932 -0.08619,0.12479 -0.03696,0.04853 -0.08,0.103988 -0.129293,0.166389 -0.04922,0.06238 -0.0985,0.117857 -0.147754,0.17332 -0.04922,0.04853 -0.0862,0.09706 -0.123136,0.131723 -0.116971,0.110924 -0.215476,0.166388 -0.295514,0.166388 -0.0061,0 -0.02463,0 -0.04925,-0.01387 -0.02463,-0.0068 -0.0431,-0.0208 -0.06772,-0.04853 -0.02463,-0.01387 -0.04925,-0.04159 -0.06157,-0.07626 -0.01848,-0.04159 -0.03078,-0.08319 -0.03078,-0.138656 0,-0.04852 0.0123,-0.12479 0.03693,-0.214917 0.02463,-0.103989 0.07387,-0.235716 0.153918,-0.402103 0.06773,-0.152522 0.153912,-0.305045 0.264733,-0.478365 0.110823,-0.17332 0.227795,-0.318911 0.350931,-0.436768 0.104659,-0.110926 0.190847,-0.173321 0.264732,-0.201053 0.06157,-0.02773 0.116972,-0.04159 0.141598,-0.04159 z m -0.147754,0.311977 c -0.06775,0 -0.172386,0.09706 -0.313983,0.284245 -0.123138,0.159454 -0.215491,0.325842 -0.295524,0.499163 -0.06773,0.17332 -0.116975,0.311977 -0.1416,0.41597 -0.0123,0.04852 -0.01848,0.09706 -0.0061,0.131724 0.0061,0.04159 0.03077,0.06238 0.06157,0.06238 0.02463,0 0.05542,-0.0208 0.08619,-0.04159 0.03695,-0.03466 0.08008,-0.06933 0.129293,-0.117859 0.04314,-0.04852 0.09234,-0.117857 0.166223,-0.214916 0.06157,-0.09013 0.135449,-0.19412 0.209325,-0.305044 0.01852,-0.02079 0.03078,-0.05546 0.05539,-0.09013 0.01844,-0.04853 0.03696,-0.08319 0.0554,-0.124791 0.01844,-0.03466 0.03078,-0.07626 0.04922,-0.103988 0.01235,-0.02773 0.02461,-0.04853 0.03079,-0.0624 0.0058,-0.02773 0.01844,-0.06238 0.02461,-0.103988 0.0058,-0.03466 0.0058,-0.06933 0,-0.103988 -0.0058,-0.03466 -0.02461,-0.06238 -0.03078,-0.09013 -0.01844,-0.02772 -0.04314,-0.03466 -0.07391,-0.03466 z m 0.9712,1.372698 c 0,-0.06239 0.02461,-0.221849 0.08,-0.485297 0.0554,-0.263448 0.16623,-0.610088 0.32014,-1.046856 0.09235,-0.256514 0.172387,-0.471432 0.240116,-0.651685 0.06773,-0.166387 0.129285,-0.318909 0.178535,-0.429835 0.04314,-0.117857 0.08619,-0.207984 0.116981,-0.270379 0.03078,-0.06238 0.05539,-0.09705 0.06773,-0.124792 0.02461,-0.03466 0.05539,-0.04853 0.08619,-0.04853 0.02461,0 0.05539,0.01387 0.06775,0.03466 0.04314,0.06239 0.06773,0.117858 0.05539,0.173321 -0.0058,0.05546 -0.03078,0.117858 -0.06773,0.194119 -0.110823,0.235716 -0.209326,0.464498 -0.30168,0.686349 -0.09234,0.228782 -0.172387,0.443701 -0.233951,0.637819 -0.07391,0.207985 -0.135441,0.381305 -0.184692,0.547694 -0.04314,0.159454 -0.08008,0.291177 -0.104667,0.395169 -0.02461,0.09705 -0.03686,0.173319 -0.04922,0.228783 0,0.0624 0,0.110925 0.0058,0.138657 0.0058,0.02773 0.01844,0.04852 0.03078,0.06238 0.01844,0.0068 0.03078,0.01387 0.04922,0.01387 0.04314,0 0.110822,-0.02773 0.197012,-0.09013 0.08619,-0.06238 0.184701,-0.138657 0.28936,-0.228783 0.104658,-0.09705 0.215482,-0.201052 0.320149,-0.31891 0.104658,-0.110924 0.203161,-0.22185 0.283202,-0.332776 0.01226,-0.01387 0.03078,-0.02773 0.03695,-0.01387 0.01852,0 0.02461,0.01387 0.02461,0.03466 0,0.02773 -0.0058,0.05546 -0.01235,0.09013 -0.01226,0.02773 -0.02461,0.06238 -0.04922,0.103988 -0.04923,0.09013 -0.135449,0.19412 -0.23395,0.311979 -0.110816,0.124789 -0.221638,0.242648 -0.344767,0.353572 -0.123136,0.110926 -0.246263,0.207985 -0.3694,0.284246 -0.129284,0.0832 -0.233951,0.117858 -0.320141,0.117858 -0.05539,0 -0.0985,-0.03466 -0.129284,-0.103988 -0.03078,-0.06933 -0.04922,-0.152522 -0.04922,-0.256515 z m 3.804769,-2.357159 c 0.06157,0 0.123136,0.01387 0.178544,0.05546 0.05539,0.04159 0.0862,0.103989 0.0862,0.187187 0,0.04159 -0.01226,0.08319 -0.02461,0.110925 -0.01852,0.03466 -0.04314,0.06238 -0.06775,0.08319 -0.02461,0.02079 -0.04314,0.04159 -0.06773,0.04853 -0.02461,0.01387 -0.04314,0.02079 -0.05539,0.02773 -0.03078,0 -0.04922,0 -0.04922,-0.01387 -0.0058,-0.0208 0,-0.02773 0,-0.04852 0.0058,-0.01387 0.01226,-0.03466 0.01852,-0.03466 0.0058,-0.01387 0.0058,-0.02773 0.0058,-0.04853 0,-0.01387 -0.01235,-0.03467 -0.02461,-0.05546 -0.01844,-0.01387 -0.04922,-0.02079 -0.08618,-0.02079 -0.0554,0 -0.110824,0.0068 -0.166231,0.04159 -0.06774,0.02079 -0.129292,0.0624 -0.190856,0.117858 -0.06157,0.04159 -0.116972,0.09013 -0.178545,0.159455 -0.0554,0.06239 -0.110814,0.12479 -0.160065,0.187186 -0.05539,0.09013 -0.110824,0.187186 -0.166231,0.284246 -0.0554,0.09706 -0.0985,0.194119 -0.141607,0.311976 -0.03695,0.09705 -0.07391,0.214919 -0.09234,0.318909 -0.03079,0.110926 -0.04314,0.221852 -0.04314,0.332776 0,0.131724 0.03078,0.235716 0.08,0.298112 0.06157,0.06238 0.135449,0.09705 0.233952,0.09705 0.123136,0 0.240108,-0.02773 0.375557,-0.0832 0.116971,-0.04853 0.240107,-0.110925 0.344766,-0.180253 0.104667,-0.07625 0.203169,-0.145589 0.277047,-0.207984 0.08,-0.06933 0.135448,-0.110926 0.16623,-0.131723 0.03078,-0.03466 0.05539,-0.04159 0.07391,-0.02773 0.01226,0.02773 0.0058,0.0624 -0.0058,0.103989 -0.01844,0.04853 -0.08619,0.12479 -0.190848,0.242649 -0.110824,0.110924 -0.258578,0.22185 -0.437122,0.332773 -0.129292,0.08319 -0.252419,0.145591 -0.381703,0.187187 -0.123145,0.04853 -0.240116,0.06933 -0.357098,0.06933 -0.08619,0 -0.160065,-0.02079 -0.215482,-0.05546 -0.06156,-0.04853 -0.116971,-0.09705 -0.153908,-0.159455 -0.03695,-0.06932 -0.06775,-0.145589 -0.08008,-0.228782 -0.01844,-0.0832 -0.02461,-0.173322 -0.02461,-0.263448 0,-0.166388 0.03078,-0.346641 0.0862,-0.533827 0.05539,-0.187186 0.13544,-0.374372 0.233951,-0.547692 0.104659,-0.180253 0.22163,-0.346641 0.357079,-0.499163 0.141598,-0.14559 0.295516,-0.263448 0.461739,-0.353574 0.07391,-0.03466 0.14776,-0.06239 0.209325,-0.0832 0.05539,-0.01387 0.110824,-0.0208 0.166231,-0.0208 z m 0.306294,2.364092 c 0,-0.103989 0.01226,-0.207984 0.04922,-0.332776 0.03079,-0.117857 0.06156,-0.22185 0.09234,-0.311976 0.02461,-0.04159 0.04922,-0.09013 0.08,-0.145589 0.03079,-0.05546 0.06157,-0.110926 0.0862,-0.173321 0.03687,-0.05546 0.06773,-0.103989 0.09234,-0.152522 0.03078,-0.04159 0.04922,-0.07626 0.06773,-0.09705 0.01226,-0.02773 0.03078,-0.05546 0.04314,-0.07626 0.01235,-0.02773 0.01844,-0.05546 0.01844,-0.09013 0.0058,-0.04159 0.0058,-0.07626 0.02461,-0.103989 0.0058,-0.0208 0.02461,-0.04852 0.04314,-0.06239 0.02461,-0.03466 0.07391,-0.05546 0.129285,-0.05546 0.02461,0 0.04921,0 0.06156,-0.01387 0.01844,-0.01387 0.03078,-0.02773 0.04921,-0.04853 0.03696,-0.05546 0.08008,-0.0832 0.147762,-0.0832 0.04922,0 0.08,0.01387 0.104658,0.04852 0.01226,0.0208 0.02461,0.05546 0.02461,0.09705 0,0.01387 0,0.02773 0,0.04159 0,0.02079 0.01235,0.02773 0.02461,0.04159 0.06157,0.04852 0.116972,0.117858 0.172379,0.214918 0.04922,0.09013 0.07391,0.214916 0.07391,0.374371 0,0.04159 -0.0058,0.09012 -0.01852,0.152522 -0.01852,0.0624 -0.03078,0.12479 -0.05539,0.187187 -0.01844,0.06933 -0.04922,0.138655 -0.08009,0.207984 -0.03687,0.06933 -0.07391,0.131723 -0.110815,0.187186 -0.135448,0.201051 -0.283203,0.339708 -0.443269,0.429834 -0.153918,0.09013 -0.289368,0.138657 -0.406339,0.138657 -0.03078,0 -0.06156,-0.01387 -0.09235,-0.02773 -0.03695,-0.02079 -0.06157,-0.04853 -0.09234,-0.0832 -0.02461,-0.03466 -0.04922,-0.07626 -0.06156,-0.124789 -0.01852,-0.03466 -0.02461,-0.0832 -0.02461,-0.131726 z m 0.289357,-0.0832 c 0,0.05546 0.01235,0.09705 0.04314,0.131725 0.01852,0.03466 0.05539,0.05546 0.09234,0.05546 0.04314,0 0.09235,-0.01387 0.147754,-0.04159 0.05539,-0.02773 0.110824,-0.07625 0.166232,-0.138657 0.04314,-0.04159 0.0862,-0.103989 0.135449,-0.173319 0.04314,-0.07626 0.08619,-0.152522 0.123127,-0.235716 0.03695,-0.07625 0.06773,-0.159455 0.09235,-0.235715 0.03079,-0.09013 0.03696,-0.159455 0.03696,-0.228784 0,-0.04159 0,-0.0832 -0.0058,-0.131724 0,-0.04159 -0.01226,-0.0832 -0.02461,-0.117857 -0.01844,-0.04159 -0.03696,-0.06933 -0.05539,-0.09013 -0.03078,-0.02773 -0.06157,-0.04159 -0.110824,-0.04159 -0.03079,0 -0.06157,0.01387 -0.09234,0.04852 -0.03695,0.02773 -0.08,0.08319 -0.123129,0.145589 -0.03695,0.04853 -0.08619,0.117858 -0.129292,0.201052 -0.04922,0.09012 -0.0985,0.180254 -0.141597,0.27038 -0.04922,0.103989 -0.08009,0.201052 -0.110824,0.298112 -0.02461,0.09705 -0.04314,0.187185 -0.04314,0.277311 z m 2.376452,-1.608413 c 0.02461,0 0.04922,0.01387 0.07392,0.04159 0.01844,0.02773 0.03696,0.04853 0.05539,0.07626 0.0058,0.02773 0.01852,0.02773 0.04314,0.0068 0.03695,-0.02773 0.06775,-0.02773 0.09851,0 0.03696,0.02773 0.0554,0.04853 0.06157,0.07625 0,0.02773 0,0.05546 -0.01852,0.08319 -0.07392,0.187186 -0.135449,0.374372 -0.178544,0.533826 -0.04922,0.166388 -0.06773,0.332777 -0.06773,0.499164 0,0.131723 0.01235,0.228782 0.03078,0.318909 0.01844,0.08319 0.06156,0.12479 0.123128,0.12479 0.0554,0 0.110824,-0.02773 0.1847,-0.09013 0.07391,-0.05546 0.153919,-0.12479 0.227796,-0.214917 0.07391,-0.0832 0.153909,-0.180253 0.227795,-0.284246 0.08,-0.103988 0.147752,-0.201051 0.203168,-0.298111 0.01852,-0.02773 0.03696,-0.04853 0.05539,-0.04159 0.01226,0 0.02461,0.01387 0.02461,0.03466 0,0.04852 -0.01852,0.11786 -0.04921,0.201054 -0.04314,0.09705 -0.110815,0.207984 -0.197013,0.325841 -0.08,0.117858 -0.16623,0.22185 -0.258577,0.325843 -0.0985,0.09013 -0.190857,0.173318 -0.283203,0.235715 -0.09851,0.06238 -0.172386,0.09705 -0.240107,0.09705 -0.06157,0 -0.116972,-0.03466 -0.178543,-0.117856 -0.06157,-0.07626 -0.0985,-0.166388 -0.110816,-0.291179 0,-0.06239 -0.0058,-0.12479 -0.0058,-0.194118 -0.0058,-0.06238 -0.0058,-0.117858 -0.0058,-0.14559 0,-0.04159 -0.01226,-0.04159 -0.04314,-0.01387 -0.01226,0.03466 -0.04304,0.06932 -0.08619,0.124789 -0.03695,0.04853 -0.08,0.103988 -0.129292,0.166389 -0.04921,0.0624 -0.0985,0.117857 -0.147753,0.173321 -0.04922,0.04853 -0.0862,0.09705 -0.123136,0.131722 -0.116971,0.110925 -0.215475,0.166388 -0.295515,0.166388 -0.0058,0 -0.02461,0 -0.04922,-0.01387 -0.02461,-0.0068 -0.04314,-0.0208 -0.06775,-0.04853 -0.02461,-0.01387 -0.04921,-0.04159 -0.06157,-0.07625 -0.01852,-0.04159 -0.03078,-0.0832 -0.03078,-0.138657 0,-0.04852 0.01226,-0.124789 0.03695,-0.214916 0.02461,-0.103989 0.07391,-0.235716 0.15391,-0.402103 0.06775,-0.152524 0.153909,-0.305045 0.264733,-0.478365 0.110815,-0.17332 0.227795,-0.318911 0.350923,-0.436768 0.104667,-0.110926 0.190857,-0.173321 0.264742,-0.201053 0.06157,-0.02773 0.116971,-0.04159 0.141597,-0.04159 z m -0.147761,0.311976 c -0.06773,0 -0.172388,0.09705 -0.313984,0.284245 -0.123128,0.159455 -0.215483,0.325843 -0.295516,0.499163 -0.06773,0.173321 -0.116979,0.311978 -0.141605,0.41597 -0.01226,0.04852 -0.01852,0.09706 -0.0058,0.131724 0.0058,0.04159 0.03078,0.06238 0.06157,0.06238 0.02461,0 0.0554,-0.0208 0.08619,-0.04159 0.03696,-0.03466 0.08,-0.06932 0.129284,-0.117859 0.04314,-0.04852 0.09235,-0.117857 0.166231,-0.214916 0.06157,-0.09013 0.13545,-0.19412 0.209325,-0.305044 0.01844,-0.02079 0.03078,-0.05546 0.05539,-0.09013 0.01844,-0.04853 0.03696,-0.08319 0.0554,-0.124791 0.01852,-0.03466 0.03079,-0.07625 0.04922,-0.103988 0.01226,-0.02773 0.02461,-0.04853 0.03078,-0.06238 0.0058,-0.02773 0.01852,-0.06239 0.02461,-0.103988 0.0058,-0.03466 0.0058,-0.06933 0,-0.103989 -0.0058,-0.03466 -0.02461,-0.06238 -0.03078,-0.09012 -0.01852,-0.02773 -0.04314,-0.03466 -0.07391,-0.03466 z m 2.073237,-0.311976 c 0.07391,0 0.129285,0.02773 0.16623,0.06933 0.03696,0.05546 0.05539,0.09705 0.05539,0.152521 0,0.0624 -0.01852,0.117859 -0.04921,0.152522 -0.04314,0.04159 -0.07391,0.07626 -0.104659,0.09706 -0.05539,0.03466 -0.09234,0.03466 -0.116972,0.01387 -0.03078,-0.02773 -0.03695,-0.06238 -0.02461,-0.110926 0.0058,-0.06238 -0.01844,-0.09013 -0.07391,-0.09013 -0.02461,0 -0.05539,0.0068 -0.09234,0.02773 -0.03078,0.0208 -0.07391,0.04852 -0.110824,0.09013 -0.03696,0.03466 -0.08,0.06933 -0.110815,0.117858 -0.03696,0.04852 -0.07391,0.09013 -0.104659,0.138656 -0.09235,0.159455 -0.160073,0.311977 -0.190856,0.443701 -0.03078,0.138656 -0.04314,0.256514 -0.04314,0.339707 0,0.110925 0.02461,0.201052 0.06773,0.256515 0.04314,0.06238 0.104659,0.09013 0.178544,0.09013 0.09234,0 0.197003,-0.02773 0.307828,-0.08319 0.110815,-0.04853 0.221639,-0.117858 0.332453,-0.194119 0.110824,-0.0832 0.215482,-0.166388 0.320141,-0.263448 0.09851,-0.09705 0.184701,-0.187185 0.252429,-0.270379 0.04922,-0.05546 0.08,-0.06238 0.09234,-0.01387 0.01226,0.04159 -0.0058,0.103988 -0.05539,0.173322 -0.08008,0.12479 -0.178544,0.235715 -0.289368,0.346639 -0.110814,0.103989 -0.227786,0.201052 -0.35708,0.29118 -0.123134,0.08319 -0.252419,0.152521 -0.375547,0.207984 -0.129292,0.04159 -0.246264,0.06933 -0.35093,0.06933 -0.04314,0 -0.09234,0 -0.147755,-0.02773 -0.04922,-0.0068 -0.09235,-0.04159 -0.135448,-0.08319 -0.04314,-0.04159 -0.08,-0.09705 -0.104659,-0.166388 -0.02461,-0.06933 -0.04314,-0.159455 -0.04314,-0.263447 0,-0.131723 0.03078,-0.291178 0.0862,-0.471432 0.05539,-0.194119 0.160066,-0.381304 0.295515,-0.561559 0.04922,-0.06933 0.104666,-0.131724 0.172388,-0.187185 0.06157,-0.05546 0.116971,-0.103988 0.190856,-0.152522 0.06157,-0.04159 0.123128,-0.07626 0.190848,-0.103989 0.06157,-0.02079 0.11698,-0.03466 0.16623,-0.03466 z m 2.113245,0.04159 c 0.04314,0 0.07391,0.02079 0.09235,0.04853 0.01226,0.02773 0.01226,0.07626 -0.01226,0.138657 -0.02461,0.05546 -0.04922,0.117857 -0.08,0.201052 -0.03078,0.08319 -0.06157,0.17332 -0.09234,0.277312 -0.03078,0.103999 -0.06157,0.207984 -0.09851,0.31891 -0.03078,0.110925 -0.05539,0.22185 -0.08,0.332776 -0.01226,0.08319 -0.02461,0.145589 -0.03078,0.20105 -0.0058,0.04853 0,0.09013 0.0058,0.110926 0.0058,0.03466 0.01226,0.05546 0.02461,0.06238 0.01226,0.01387 0.03078,0.02079 0.04314,0.02079 0.06775,0 0.147755,-0.04159 0.252421,-0.110925 0.104659,-0.0832 0.209327,-0.173321 0.307828,-0.277314 0.110824,-0.103988 0.209327,-0.214917 0.301672,-0.318909 0.09235,-0.110924 0.153919,-0.194118 0.197013,-0.256513 0.01852,-0.03466 0.03696,-0.04159 0.0554,-0.03466 0.01226,0 0.02461,0.0068 0.02461,0.03466 0,0.05546 -0.01844,0.110924 -0.05539,0.187185 -0.05539,0.117859 -0.141596,0.242648 -0.246263,0.36744 -0.110815,0.138656 -0.227795,0.256513 -0.357079,0.360506 -0.123127,0.117859 -0.240109,0.207985 -0.363244,0.284246 -0.110815,0.06932 -0.203161,0.110924 -0.270889,0.110924 -0.03078,0 -0.06156,-0.01387 -0.08,-0.03466 -0.03078,-0.02079 -0.04923,-0.06239 -0.06157,-0.117857 -0.01844,-0.05546 -0.02461,-0.124791 -0.02461,-0.221851 0,-0.09705 0.01235,-0.214917 0.03696,-0.360507 0.01226,-0.07626 0.03078,-0.145589 0.03695,-0.214917 0.01852,-0.07625 0.03696,-0.145589 0.04922,-0.214917 0.01843,-0.06932 0.03686,-0.131723 0.0554,-0.187186 0.01235,-0.05546 0.02461,-0.103988 0.03695,-0.145589 0.03078,-0.110924 0,-0.131724 -0.09234,-0.04853 -0.110823,0.09705 -0.209325,0.19412 -0.307828,0.291178 -0.09235,0.09706 -0.172387,0.19412 -0.25242,0.291179 -0.07392,0.09013 -0.135449,0.173321 -0.184701,0.249582 -0.05539,0.06933 -0.09234,0.131723 -0.116978,0.180253 -0.03696,0.06238 -0.0554,0.117857 -0.07391,0.166387 -0.01226,0.04159 -0.02461,0.0832 -0.03078,0.124791 -0.0058,0.0624 -0.02461,0.110924 -0.06156,0.145589 -0.03696,0.04159 -0.07392,0.05546 -0.123129,0.05546 -0.03079,0 -0.0554,-0.04159 -0.06775,-0.110925 -0.01226,-0.07625 -0.01226,-0.159455 0.0058,-0.249581 0.0058,-0.03466 0.01844,-0.110926 0.04314,-0.228784 0.02461,-0.110924 0.06157,-0.24958 0.104657,-0.409035 0.03696,-0.152524 0.08,-0.318911 0.129294,-0.499163 0.03686,-0.173321 0.08619,-0.339709 0.129285,-0.485298 0.03696,-0.131724 0.08,-0.263448 0.123127,-0.395171 0.04922,-0.124791 0.09235,-0.249581 0.13545,-0.374372 0.04314,-0.117857 0.08619,-0.22185 0.123127,-0.31891 0.04314,-0.09013 0.08008,-0.159454 0.110822,-0.214917 0.04314,-0.08319 0.08,-0.145589 0.110817,-0.180253 0.03078,-0.02773 0.05539,-0.04853 0.07391,-0.04853 0.03695,0 0.07391,0.03466 0.110815,0.09705 0.01844,0.02773 0.03078,0.0624 0.04314,0.09013 0,0.02773 -0.01235,0.06933 -0.03696,0.103989 -0.09851,0.159455 -0.197014,0.339708 -0.277047,0.554625 -0.09235,0.207986 -0.16623,0.41597 -0.233959,0.623955 -0.06774,0.207984 -0.123128,0.402103 -0.17238,0.582355 -0.04314,0.187188 -0.08619,0.332777 -0.110814,0.443702 -0.0058,0.03466 -0.0058,0.06238 0,0.06933 0.01226,0.0068 0.02461,-0.0068 0.04921,-0.03466 0.03078,-0.03466 0.08,-0.09013 0.141597,-0.159455 0.07391,-0.07626 0.141605,-0.152522 0.221638,-0.235716 0.08007,-0.08319 0.153919,-0.166387 0.233953,-0.24265 0.07391,-0.07625 0.135449,-0.138656 0.184699,-0.187185 0.08,-0.06238 0.141597,-0.110925 0.197014,-0.152522 0.05539,-0.03466 0.123127,-0.05546 0.197004,-0.05546 z m 1.42372,-1.032991 c 0.04314,0 0.08619,0.01387 0.116972,0.04159 0.03078,0.03466 0.03696,0.06933 0.02461,0.12479 -0.01226,0.06238 -0.02461,0.138657 -0.03696,0.214918 0,0.07626 -0.0058,0.145589 0,0.201051 0.0058,0.04159 -0.0058,0.06239 -0.02461,0.06933 -0.01844,0 -0.04314,-0.0068 -0.08,-0.02079 -0.06774,-0.04159 -0.116972,-0.110927 -0.129284,-0.19412 -0.0058,-0.02773 -0.01226,-0.0624 -0.01852,-0.103988 -0.0058,-0.04159 -0.0058,-0.07626 -0.0058,-0.117858 0.0058,-0.09013 0.03079,-0.145589 0.04922,-0.17332 0.03078,-0.03466 0.06157,-0.04159 0.0985,-0.04159 z M 50.23231,24.2662 c -0.03078,0 -0.06157,-0.01387 -0.09234,-0.04853 -0.03696,-0.02079 -0.07392,-0.07626 -0.110823,-0.152524 -0.04314,-0.103988 -0.05539,-0.22185 -0.01844,-0.339707 0.0058,-0.02773 0.01844,-0.07625 0.03695,-0.131724 0.01226,-0.06238 0.03696,-0.12479 0.04922,-0.194118 0.01844,-0.06239 0.04314,-0.131725 0.06157,-0.19412 0.01844,-0.06933 0.03696,-0.12479 0.04922,-0.159455 0.01235,-0.03466 0.01235,-0.06238 0.01852,-0.07626 0.0058,-0.0208 0.0058,-0.04159 0.01235,-0.05546 0.0058,-0.05546 0.01226,-0.103989 0.03696,-0.166387 0.02461,-0.04853 0.04921,-0.09706 0.08619,-0.166388 0.03078,-0.05546 0.06157,-0.117859 0.0985,-0.173321 0.04314,-0.06238 0.08,-0.110925 0.11698,-0.145589 0.03696,-0.04159 0.06775,-0.06239 0.09234,-0.06239 0.03078,0 0.04921,0.01387 0.06156,0.04159 0.01852,0.01387 0.03078,0.04159 0.03695,0.09013 0.0058,0.03466 -0.0058,0.08319 -0.03078,0.138656 -0.04314,0.08319 -0.08619,0.173321 -0.13544,0.277313 -0.04314,0.103989 -0.0862,0.207984 -0.129293,0.311977 -0.03696,0.110924 -0.07392,0.214917 -0.110816,0.318909 -0.03078,0.103988 -0.0554,0.201052 -0.0862,0.298112 -0.02461,0.103988 -0.02461,0.180252 -0.0058,0.214917 0.01226,0.04159 0.04314,0.06239 0.0862,0.06239 0.06156,0 0.147753,-0.03466 0.246263,-0.09706 0.0985,-0.06238 0.203161,-0.152521 0.301672,-0.242648 0.110815,-0.09705 0.215482,-0.207985 0.326297,-0.318909 0.09851,-0.110925 0.197013,-0.221851 0.277046,-0.311977 0.02461,-0.03466 0.04314,-0.04159 0.0554,-0.03466 0.01844,0 0.02461,0.01387 0.02461,0.04159 0,0.02079 -0.0058,0.04159 -0.01226,0.06932 -0.0058,0.02773 -0.01844,0.06238 -0.04314,0.103988 -0.05539,0.09706 -0.129293,0.19412 -0.215482,0.291179 -0.08619,0.103988 -0.178543,0.201051 -0.277046,0.298111 -0.09235,0.09705 -0.190856,0.180253 -0.283203,0.249581 -0.0985,0.08319 -0.178543,0.131724 -0.252421,0.166389 -0.06157,0.04159 -0.116971,0.06238 -0.16623,0.07625 -0.03696,0.01387 -0.07391,0.02079 -0.0985,0.02079 z m 1.603791,-2.156108 c 0.04922,0 0.08008,0.02773 0.110824,0.08319 0.03078,0.06239 0.04922,0.110926 0.04922,0.152522 0,0.02772 -0.01844,0.04852 -0.04922,0.05546 -0.02461,0.0068 -0.04922,0.02079 -0.06775,0.04159 -0.01852,0.03467 -0.03696,0.06238 -0.06156,0.110926 -0.01235,0.04159 -0.03696,0.08319 -0.06157,0.15252 -0.01844,0.05546 -0.03696,0.124792 -0.06157,0.207986 -0.02461,0.06933 -0.04314,0.138656 -0.06157,0.214917 -0.01852,0.06933 -0.03079,0.138655 -0.04314,0.19412 -0.0058,0.02773 -0.0058,0.04159 0.0058,0.05546 0.01226,0 0.03078,-0.0068 0.04314,-0.03466 0.04314,-0.06238 0.0985,-0.138656 0.16623,-0.221849 0.06157,-0.0832 0.135449,-0.166389 0.203171,-0.242649 0.07391,-0.09013 0.141597,-0.159455 0.209324,-0.228784 0.06157,-0.06239 0.116971,-0.110924 0.147755,-0.145589 0.08,-0.06239 0.129292,-0.103988 0.160073,-0.12479 0.02461,-0.02079 0.04922,-0.03466 0.07392,-0.04853 0.04314,-0.01387 0.07391,-0.04852 0.0985,-0.103988 0.01235,-0.02079 0.03078,-0.04159 0.04922,-0.05546 0.0058,-0.02079 0.03078,-0.02773 0.04314,-0.02773 0.03696,0 0.06775,0.02079 0.104658,0.07626 0.02461,0.02773 0.03696,0.0624 0.03079,0.09705 0,0.03466 -0.01226,0.07626 -0.03079,0.124791 -0.01844,0.03466 -0.04314,0.0832 -0.06773,0.12479 -0.03078,0.04853 -0.0554,0.09706 -0.08009,0.159455 -0.04922,0.110926 -0.09234,0.235716 -0.129285,0.381305 -0.04921,0.131724 -0.08619,0.256514 -0.110815,0.374373 -0.02461,0.110924 -0.03078,0.194118 -0.03078,0.270379 0,0.07626 0.0058,0.131724 0.01844,0.173321 0.01852,0.04853 0.03695,0.08319 0.06774,0.09706 0.02461,0.02079 0.05539,0.02773 0.08619,0.02773 0.06157,0 0.135449,-0.02773 0.221638,-0.09013 0.08007,-0.06933 0.166231,-0.159455 0.252421,-0.256515 0.09235,-0.09705 0.178544,-0.207984 0.270898,-0.318909 0.08,-0.117859 0.153909,-0.214918 0.22163,-0.311977 0.03696,-0.05546 0.05539,-0.06238 0.06775,-0.0208 0.01852,0.04159 0,0.103999 -0.04922,0.187187 -0.116972,0.201051 -0.221638,0.374372 -0.320141,0.513028 -0.110815,0.138657 -0.203169,0.249582 -0.295515,0.332776 -0.09234,0.09013 -0.178543,0.145589 -0.264733,0.180253 -0.08,0.04159 -0.147762,0.05546 -0.215483,0.05546 -0.110814,0 -0.197012,-0.06933 -0.258576,-0.214916 -0.06157,-0.138657 -0.06774,-0.346642 -0.01226,-0.623953 0.02461,-0.124792 0.04921,-0.24265 0.07391,-0.346642 0.03078,-0.103989 0.05539,-0.187187 0.08,-0.249582 0.01235,-0.05546 0.02461,-0.09013 0.02461,-0.103989 0,-0.0208 0,-0.03466 -0.0058,-0.04159 -0.01844,-0.01387 -0.04922,0.0068 -0.110825,0.06933 -0.116971,0.110925 -0.215481,0.228784 -0.307828,0.339707 -0.0985,0.117859 -0.178543,0.228784 -0.252419,0.332777 -0.08,0.110925 -0.135441,0.207983 -0.190848,0.305043 -0.0554,0.09013 -0.09235,0.173321 -0.129293,0.235716 -0.01226,0.03466 -0.03695,0.06933 -0.06773,0.117858 -0.02461,0.03466 -0.05539,0.05546 -0.08008,0.05546 -0.03078,0 -0.06156,-0.02079 -0.09234,-0.07626 -0.01844,-0.01387 -0.02461,-0.04853 -0.01844,-0.09705 0.0058,-0.05546 0.01226,-0.09705 0.02461,-0.152521 0.07391,-0.381305 0.147761,-0.707147 0.221639,-0.977528 0.08,-0.263447 0.141604,-0.450632 0.184699,-0.547692 0.04314,-0.103988 0.08619,-0.166388 0.116972,-0.194119 0.03695,-0.02773 0.06774,-0.04159 0.09234,-0.04159 z m 2.822799,0.08319 c 0.05539,0 0.09851,0.0068 0.135449,0.02773 0.03078,0.02773 0.06156,0.05546 0.08,0.09013 0.02461,0.02773 0.04314,0.06238 0.04922,0.103989 0.01226,0.02773 0.01852,0.06239 0.01852,0.08319 0,0.04853 -0.01852,0.09706 -0.04922,0.14559 -0.02461,0.05546 -0.06157,0.09013 -0.110814,0.12479 -0.02461,0.02079 -0.03078,0.04852 -0.02461,0.0624 0.01235,0.02773 0.01235,0.07625 0,0.124791 -0.0058,0.06239 -0.02461,0.159455 -0.04922,0.284245 -0.02461,0.117858 -0.04314,0.249583 -0.06773,0.374373 -0.02461,0.138656 -0.04922,0.256513 -0.06775,0.367439 -0.02461,0.103989 -0.04314,0.187186 -0.04314,0.228784 -0.06773,0.332774 -0.160067,0.630886 -0.277046,0.894333 -0.116972,0.277313 -0.264734,0.506096 -0.449425,0.707149 -0.04314,0.04853 -0.09851,0.09705 -0.160076,0.138654 -0.06156,0.03466 -0.123135,0.07626 -0.1847,0.103988 -0.06773,0.02773 -0.129283,0.05546 -0.1847,0.07626 -0.05539,0.0068 -0.104658,0.02079 -0.147753,0.02079 -0.03078,0 -0.06773,0 -0.09851,0 -0.03686,-0.0068 -0.06774,-0.01387 -0.0985,-0.01387 -0.02461,-0.0068 -0.04922,-0.02079 -0.07392,-0.02079 -0.01844,-0.0068 -0.04922,-0.0068 -0.09234,-0.0068 -0.04922,0 -0.104666,-0.0208 -0.160073,-0.06238 -0.06157,-0.03466 -0.09235,-0.07625 -0.09235,-0.131724 0,-0.02079 0.01235,-0.04159 0.02461,-0.06933 0.01844,-0.02773 0.03078,-0.05546 0.06156,-0.07626 0.02461,-0.02079 0.04922,-0.04159 0.08,-0.05546 0.02461,-0.02079 0.04922,-0.02079 0.07391,-0.02079 0.02461,0 0.0554,0.0068 0.08008,0.03466 0.02461,0.02079 0.04922,0.04159 0.07392,0.06933 0.02461,0.02773 0.06156,0.05546 0.104659,0.08319 0.04314,0.02773 0.09851,0.03466 0.178544,0.03466 0.104658,0 0.221639,-0.04853 0.344766,-0.145591 0.129293,-0.09705 0.246264,-0.235714 0.350931,-0.4229 0.110816,-0.173321 0.184692,-0.353573 0.246264,-0.547693 0.04921,-0.201052 0.104658,-0.415968 0.147754,-0.651685 0.03078,-0.103988 0.04314,-0.201052 0.05539,-0.284246 0.01844,-0.08319 0.03078,-0.152521 0.03078,-0.207984 0.0058,-0.05546 0.01226,-0.103988 0.01844,-0.138656 0.0058,-0.04159 0.0058,-0.06933 0.0058,-0.09705 0.0058,-0.03466 0,-0.05546 -0.0058,-0.04159 -0.01844,0.01387 -0.04314,0.04159 -0.06774,0.06933 -0.01226,0.01387 -0.03695,0.04852 -0.06775,0.09012 -0.03696,0.04159 -0.07392,0.09013 -0.116972,0.145589 -0.04922,0.04852 -0.09235,0.103989 -0.141605,0.159455 -0.04314,0.05546 -0.09234,0.09706 -0.13544,0.138658 -0.02461,0.01387 -0.04922,0.04159 -0.08009,0.06933 -0.03078,0.03466 -0.06774,0.05546 -0.104659,0.08319 -0.03695,0.02773 -0.07391,0.04852 -0.116979,0.07626 -0.03078,0.01387 -0.06774,0.02773 -0.0985,0.02773 -0.05539,0 -0.0985,-0.03466 -0.129284,-0.103988 -0.03696,-0.06933 -0.0554,-0.14559 -0.0554,-0.228784 0,-0.131724 0.03078,-0.277312 0.09235,-0.422903 0.05539,-0.159455 0.141597,-0.311976 0.246265,-0.478364 0.0985,-0.152521 0.209325,-0.291178 0.33861,-0.402104 0.123127,-0.110924 0.23395,-0.20105 0.332453,-0.263446 0.06773,-0.04159 0.141605,-0.07626 0.209326,-0.110924 0.07392,-0.0208 0.129292,-0.03466 0.16623,-0.03466 z m -1.065089,1.546019 c 0,0.02772 0.0058,0.06239 0.01226,0.08319 0.0058,0.02079 0.02461,0.03466 0.03696,0.03466 0.03696,0 0.07391,-0.02079 0.129285,-0.06933 0.0554,-0.04159 0.104666,-0.09013 0.160075,-0.14559 0.05539,-0.06239 0.104658,-0.12479 0.147753,-0.180253 0.04922,-0.05546 0.0862,-0.09706 0.104666,-0.124791 0.07392,-0.09705 0.147755,-0.187187 0.197014,-0.291178 0.06156,-0.09013 0.09234,-0.152523 0.110814,-0.17332 0.03696,-0.04853 0.08,-0.0832 0.116972,-0.0832 0.0058,-0.0068 0.01852,-0.0068 0.03078,-0.01387 0.01235,-0.0068 0.02461,-0.01387 0.03078,-0.02773 0.01235,-0.01387 0.02461,-0.02773 0.03078,-0.04853 0.01235,-0.01387 0.01844,-0.03466 0.01844,-0.05546 0,-0.04159 -0.01844,-0.07626 -0.0554,-0.103989 -0.03686,-0.02773 -0.08,-0.03466 -0.129284,-0.03466 -0.05539,0 -0.110824,0.0068 -0.172387,0.03466 -0.05539,0.02773 -0.116971,0.06238 -0.172387,0.110926 -0.06157,0.04852 -0.123127,0.09706 -0.172379,0.152521 -0.06157,0.05546 -0.104668,0.110925 -0.147763,0.180254 -0.03695,0.04852 -0.06773,0.103988 -0.0985,0.166387 -0.03078,0.06238 -0.06157,0.131723 -0.0862,0.201052 -0.02461,0.06933 -0.05539,0.131724 -0.06773,0.201052 -0.01235,0.06238 -0.02461,0.12479 -0.02461,0.180253 z m 0,0"
     style="fill:#6c7376;fill-opacity:1;fill-rule:nonzero;stroke:none;stroke-width:0.557498"
     aria-label="Finacial Coaching" />
  <path
     id="path7"
     d="m 18.632051,11.870334 c 0,-0.485297 -0.06156,-0.845805 -0.178542,-1.088453 -0.116975,-0.228782 -0.357081,-0.339708 -0.714164,-0.339708 h -0.25242 v -0.291178 h 5.073032 c 0.72648,0 1.083562,0.388237 1.083562,1.150848 v 1.074587 h -0.252421 c 0,-1.102319 -0.535622,-1.650011 -1.594556,-1.650011 h -2.019364 v 3.799184 h 2.87513 v 0.568491 h -2.87513 v 4.513264 h -1.145127 z m 6.039619,0.145589 c -0.190854,0 -0.369395,-0.0832 -0.492527,-0.270381 -0.153915,-0.187184 -0.215481,-0.402103 -0.215481,-0.644752 0,-0.201051 0.04925,-0.360506 0.160073,-0.471431 0.104661,-0.117858 0.246263,-0.17332 0.424804,-0.17332 0.190854,0 0.369396,0.08319 0.492527,0.27038 0.153914,0.187186 0.21548,0.402103 0.21548,0.644752 0,0.20105 -0.04924,0.360505 -0.166227,0.471431 -0.0985,0.117859 -0.240107,0.173321 -0.418649,0.173321 z m -0.480214,2.579008 c 0,-0.485298 -0.06772,-0.845803 -0.178541,-1.088452 -0.116976,-0.228783 -0.357083,-0.346641 -0.714165,-0.346641 h -0.252421 v -0.284246 h 1.145127 c 0.313986,0 0.547937,0.04159 0.695695,0.14559 0.166228,0.08319 0.283203,0.242648 0.344769,0.485297 0.06157,0.242649 0.104663,0.603154 0.104663,1.088452 v 5.012427 h -1.145127 z m 4.48354,5.158017 c -0.609504,0 -1.126656,-0.159455 -1.532991,-0.457566 -0.437119,-0.31891 -0.738793,-0.748744 -0.941961,-1.261772 -0.221637,-0.547694 -0.320142,-1.13005 -0.320142,-1.795601 0,-0.658617 0.0985,-1.240975 0.320142,-1.788667 0.203168,-0.513029 0.504842,-0.942863 0.941961,-1.261773 0.406335,-0.298111 0.923487,-0.457566 1.532991,-0.457566 0.929645,0 1.557618,0.173321 1.846978,0.506095 0.141601,0.152524 0.227795,0.353575 0.264734,0.582358 0.0431,0.242648 0.05541,0.658618 0.05541,1.275638 H 30.58354 c -0.03694,-0.582357 -0.203164,-1.046856 -0.492526,-1.331102 -0.295516,-0.311976 -0.689538,-0.457564 -1.157439,-0.457564 -0.609504,0 -1.071247,0.27038 -1.385234,0.818071 -0.307829,0.54076 -0.461744,1.240975 -0.461744,2.11451 0,0.880468 0.153915,1.580682 0.461744,2.121443 0.313987,0.547693 0.77573,0.818073 1.385234,0.818073 0.430962,0 0.788044,-0.0832 1.06509,-0.284246 0.283203,-0.173321 0.535625,-0.471433 0.775731,-0.859669 l 0.258577,0.214917 c -0.283203,0.526893 -0.609502,0.915132 -0.99121,1.157781 -0.38171,0.228782 -0.843453,0.34664 -1.366765,0.34664 z m 5.240801,0 c -0.566406,0 -1.077404,-0.159455 -1.496053,-0.457566 -0.418647,-0.31891 -0.751104,-0.748744 -0.966585,-1.275638 -0.215481,-0.533828 -0.332456,-1.136982 -0.332456,-1.781735 0,-0.637819 0.116975,-1.240975 0.332456,-1.774801 0.215481,-0.526895 0.547938,-0.956729 0.966585,-1.275639 0.418649,-0.298111 0.929647,-0.457566 1.496053,-0.457566 0.572564,0 1.08356,0.159455 1.502209,0.457566 0.418648,0.31891 0.751103,0.748744 0.966585,1.275639 0.215479,0.533826 0.332456,1.136982 0.332456,1.774801 0,0.644753 -0.116977,1.247907 -0.332456,1.781735 -0.215482,0.526894 -0.547937,0.956728 -0.966585,1.275638 -0.418649,0.298111 -0.929645,0.457566 -1.502209,0.457566 z m 0,-0.575423 c 0.320142,0 0.603347,-0.131725 0.83114,-0.388239 0.25242,-0.256515 0.430961,-0.617021 0.56025,-1.060721 0.135446,-0.443701 0.203168,-0.942863 0.203168,-1.490556 0,-0.540761 -0.06772,-1.039922 -0.203168,-1.483623 -0.129289,-0.4437 -0.30783,-0.804207 -0.56025,-1.060721 -0.227793,-0.256515 -0.510998,-0.388237 -0.83114,-0.388237 -0.313986,0 -0.59719,0.131722 -0.824984,0.388237 -0.25242,0.256514 -0.430961,0.617021 -0.56025,1.060721 -0.135444,0.443701 -0.203168,0.942862 -0.203168,1.483623 0,0.547693 0.06772,1.046855 0.203168,1.490556 0.129289,0.4437 0.30783,0.804206 0.56025,1.060721 0.227794,0.256514 0.510998,0.388239 0.824984,0.388239 z m 4.809837,0.575423 c -0.264733,0 -0.547934,-0.06238 -0.824981,-0.201051 -0.283203,-0.117858 -0.52331,-0.332777 -0.726481,-0.630887 -0.190853,-0.305045 -0.289357,-0.686349 -0.289357,-1.178579 0,-0.727946 0.289357,-1.240975 0.898867,-1.546019 0.584874,-0.29811 1.372916,-0.457565 2.339504,-0.457565 h 0.381706 c 0,-0.928999 -0.110816,-1.573752 -0.338612,-1.920391 -0.23395,-0.339708 -0.560248,-0.513028 -0.997369,-0.513028 -0.381704,0 -0.683383,0.0832 -0.911171,0.27038 -0.227803,0.187184 -0.394026,0.506094 -0.486379,0.949795 h -0.572562 c 0,-0.332776 0.01226,-0.58929 0.04922,-0.762611 0.04314,-0.20105 0.129284,-0.37437 0.27089,-0.526894 0.153911,-0.173319 0.406331,-0.305043 0.751106,-0.388237 0.357079,-0.06932 0.738792,-0.117858 1.157434,-0.117858 0.683386,0 1.231321,0.201052 1.625346,0.630887 0.394018,0.402102 0.597189,1.206311 0.597189,2.377957 v 3.868511 H 41.01585 l -0.443277,-0.644752 h -0.06773 c -0.147754,0.214919 -0.381705,0.402104 -0.671072,0.561559 -0.295516,0.152522 -0.664908,0.228783 -1.108184,0.228783 z m 0.572561,-0.644753 c 0.283212,0 0.510998,-0.07626 0.701854,-0.228782 0.190857,-0.159455 0.357088,-0.360507 0.504843,-0.630886 v -1.934256 h -0.381706 c -0.621821,0 -1.114341,0.124789 -1.483742,0.402103 -0.369391,0.256514 -0.547934,0.596222 -0.547934,1.026057 0,0.443701 0.110815,0.776475 0.357078,1.005259 0.227796,0.242648 0.504841,0.360505 0.849607,0.360505 z m 5.668688,0.644753 c -0.609499,0 -1.126653,-0.159455 -1.532992,-0.457566 -0.437121,-0.31891 -0.738792,-0.748744 -0.941961,-1.261772 -0.22163,-0.547694 -0.320141,-1.13005 -0.320141,-1.795601 0,-0.658617 0.09851,-1.240975 0.320141,-1.788667 0.203169,-0.513029 0.50484,-0.942863 0.941961,-1.261773 0.406339,-0.298111 0.923493,-0.457566 1.532992,-0.457566 0.92965,0 1.557618,0.173321 1.846978,0.506095 0.141605,0.152524 0.227794,0.353575 0.264732,0.582358 0.04314,0.242648 0.0554,0.658618 0.0554,1.275638 H 46.87541 c -0.03696,-0.582357 -0.203169,-1.046856 -0.492528,-1.331102 -0.295516,-0.311976 -0.689541,-0.457564 -1.157443,-0.457564 -0.6095,0 -1.071247,0.27038 -1.385232,0.818071 -0.307835,0.54076 -0.461746,1.240975 -0.461746,2.11451 0,0.880468 0.153911,1.580682 0.461746,2.121443 0.313985,0.547693 0.775732,0.818073 1.385232,0.818073 0.430964,0 0.788042,-0.0832 1.065089,-0.284246 0.283202,-0.173321 0.535624,-0.471433 0.77573,-0.859669 l 0.258578,0.214917 c -0.283204,0.526893 -0.6095,0.915132 -0.991213,1.157781 -0.381706,0.228782 -0.843452,0.34664 -1.366761,0.34664 z m 2.790473,-7.882614 c 0,-0.485297 -0.06773,-0.845805 -0.178535,-1.088453 -0.11698,-0.228782 -0.357087,-0.339708 -0.714167,-0.339708 h -0.25242 v -0.291178 h 1.145122 c 0.313993,0 0.547937,0.04853 0.708011,0.145589 0.153918,0.0832 0.270898,0.242648 0.332454,0.485297 0.06156,0.242648 0.104667,0.603156 0.104667,1.088453 v 1.580682 c 0.178535,-0.201051 0.406338,-0.374372 0.683376,-0.519961 0.295524,-0.124791 0.609508,-0.201052 0.966588,-0.201052 0.640289,0 1.157444,0.187186 1.551461,0.575425 0.406339,0.388237 0.609508,1.046854 0.609508,2.003583 v 4.298347 h -1.138974 v -4.298347 c 0,-0.672482 -0.129285,-1.15778 -0.412488,-1.462825 -0.25242,-0.311976 -0.597196,-0.471431 -0.991214,-0.471431 -0.443277,0 -0.87424,0.256514 -1.268257,0.76261 v 5.469993 h -1.145132 z m 0,0"
     style="fill:#1e68bb;fill-opacity:1;fill-rule:nonzero;stroke:none;stroke-width:0.557498"
     aria-label="Ficoach" />
  <path
     id="path8"
     d="m 54.789726,19.808411 c -0.190846,0 -0.344766,-0.06932 -0.480214,-0.228782 -0.141598,-0.159455 -0.203161,-0.346642 -0.203161,-0.561559 0,-0.214918 0.06157,-0.381306 0.203161,-0.54076 0.135448,-0.159455 0.289368,-0.228783 0.480214,-0.228783 0.190857,0 0.35708,0.06932 0.486372,0.228783 0.13545,0.159454 0.20317,0.325842 0.20317,0.54076 0,0.214917 -0.06774,0.402104 -0.20317,0.561559 -0.141606,0.159454 -0.295515,0.228782 -0.486372,0.228782 z m 1.222086,-5.21348 c 0,-0.485298 -0.06773,-0.845803 -0.178543,-1.088452 -0.116971,-0.228783 -0.357079,-0.346641 -0.714167,-0.346641 H 54.86669 v -0.284246 h 1.145122 c 0.313986,0 0.572562,0.05546 0.726481,0.14559 0.172387,0.110924 0.289358,0.270379 0.350923,0.499162 h 0.06773 c 0.147755,-0.214916 0.369393,-0.402103 0.646438,-0.561558 0.277046,-0.152522 0.634133,-0.228783 1.071246,-0.228783 0.720324,0 1.292884,0.332776 1.686911,1.005259 0.394018,0.658618 0.597186,1.490556 0.597186,2.502747 0,1.019124 -0.203168,1.864928 -0.6095,2.523547 -0.41865,0.658618 -1.015837,0.991392 -1.803882,0.991392 -0.320139,0 -0.609506,-0.04853 -0.849615,-0.117858 -0.246255,-0.06933 -0.498684,-0.187186 -0.738784,-0.311976 v 3.008844 h -1.14513 z m 2.351818,4.582594 c 0.547936,0 0.941962,-0.27038 1.194383,-0.804209 0.27089,-0.526893 0.394026,-1.240973 0.394026,-2.135307 0,-0.873535 -0.123136,-1.587616 -0.369401,-2.128376 -0.240108,-0.533825 -0.609508,-0.804205 -1.089715,-0.804205 -0.572561,0 -1.021994,0.284245 -1.335979,0.859667 v 4.582595 c 0.252413,0.131723 0.467894,0.242648 0.65875,0.311975 0.190856,0.07625 0.369392,0.11786 0.547936,0.11786 z m 3.3692,-4.582594 c 0,-0.485298 -0.06157,-0.845803 -0.178544,-1.088452 -0.110815,-0.228783 -0.350924,-0.346641 -0.708011,-0.346641 h -0.129284 v -0.284246 h 1.015839 c 0.320141,0 0.560248,0.05546 0.738792,0.14559 0.153909,0.110924 0.283203,0.270379 0.344765,0.499162 h 0.06157 c 0.153918,-0.214916 0.357087,-0.402103 0.609507,-0.561558 0.27089,-0.152522 0.572562,-0.228783 0.917329,-0.228783 0.344775,0 0.597187,0.07625 0.763417,0.214918 0.141606,0.131723 0.295515,0.34664 0.443278,0.644752 l -0.504841,0.429833 c -0.09235,-0.138654 -0.227796,-0.256514 -0.406332,-0.311975 -0.178543,-0.09013 -0.381713,-0.117858 -0.615663,-0.117858 -0.252421,0 -0.480216,0.06238 -0.695698,0.201051 -0.215475,0.117858 -0.381706,0.305044 -0.510998,0.519962 v 5.296672 h -1.145122 z m 6.242784,5.158017 c -0.566406,0 -1.077403,-0.159455 -1.496054,-0.457566 -0.418644,-0.31891 -0.751105,-0.748744 -0.966579,-1.275638 -0.215482,-0.533828 -0.332463,-1.136982 -0.332463,-1.781735 0,-0.637819 0.116981,-1.240975 0.332463,-1.774801 0.215474,-0.526895 0.547935,-0.956729 0.966579,-1.275639 0.418651,-0.298111 0.929648,-0.457566 1.496054,-0.457566 0.572561,0 1.083567,0.159455 1.502209,0.457566 0.418652,0.31891 0.751106,0.748744 0.966588,1.275639 0.215482,0.533826 0.332453,1.136982 0.332453,1.774801 0,0.644753 -0.116971,1.247907 -0.332453,1.781735 -0.215482,0.526894 -0.547936,0.956728 -0.966588,1.275638 -0.418642,0.298111 -0.929648,0.457566 -1.502209,0.457566 z m 0,-0.575423 c 0.320149,0 0.60335,-0.131725 0.831138,-0.388239 0.252429,-0.256515 0.430963,-0.617021 0.560257,-1.060721 0.13544,-0.443701 0.203161,-0.942863 0.203161,-1.490556 0,-0.540761 -0.06773,-1.039922 -0.203161,-1.483623 -0.129294,-0.4437 -0.307828,-0.804207 -0.560257,-1.060721 -0.227788,-0.256515 -0.510989,-0.388237 -0.831138,-0.388237 -0.313985,0 -0.597188,0.131722 -0.824983,0.388237 -0.25242,0.256514 -0.430963,0.617021 -0.560248,1.060721 -0.135449,0.443701 -0.203169,0.942862 -0.203169,1.483623 0,0.547693 0.06773,1.046855 0.203169,1.490556 0.129285,0.4437 0.307828,0.804206 0.560248,1.060721 0.227795,0.256514 0.510998,0.388239 0.824983,0.388239 z m 0,0"
     style="fill:#6c7376;fill-opacity:1;fill-rule:nonzero;stroke:none;stroke-width:0.557498"
     aria-label=".pro" />
</svg>
